v 0.000000 0.707107 -0.707107
v 0.000000 0.258819 -0.965926
v 0.000000 -0.258819 -0.965926
v 0.000000 -0.500000 -0.866025
v 0.129410 0.965926 -0.224144
v 0.250000 0.866025 -0.433013
v 0.353553 0.707107 -0.612372
v 0.433013 0.500000 -0.750000
v 0.482963 0.258819 -0.836516
v 0.500000 0.000000 -0.866025
v 0.482963 -0.258819 -0.836516
v 0.433013 -0.500000 -0.750000
v 0.353553 -0.707107 -0.612372
v 0.250000 -0.866025 -0.433013
v 0.129410 -0.965926 -0.224144
v 0.224144 0.965926 -0.129410
v 0.433013 0.866025 -0.250000
v 0.612372 0.707107 -0.353553
v 0.750000 0.500000 -0.433013
v 0.836516 0.258819 -0.482963
v 0.866025 0.000000 -0.500000
v 0.836516 -0.258819 -0.482963
v 0.750000 -0.500000 -0.433013
v 0.612372 -0.707107 -0.353553
v 0.433013 -0.866025 -0.250000
v 0.224144 -0.965926 -0.129410
v 0.258819 0.965926 0.000000
v 0.500000 0.866025 0.000000
v 0.707107 0.707107 0.000000
v 0.866025 0.500000 0.000000
v 0.965926 0.258819 0.000000
v 1.000000 0.000000 0.000000
v 0.965926 -0.258819 0.000000
v 0.866025 -0.500000 0.000000
v 0.707107 -0.707107 0.000000
v 0.500000 -0.866025 0.000000
v 0.258819 -0.965926 0.000000
v 0.224144 0.965926 0.129410
v 0.433013 0.866025 0.250000
v 0.612372 0.707107 0.353553
v 0.750000 0.500000 0.433013
v 0.836516 0.258819 0.482963
v 0.866025 0.000000 0.500000
v 0.836516 -0.258819 0.482963
v 0.750000 -0.500000 0.433013
v 0.612372 -0.707107 0.353553
v 0.433013 -0.866025 0.250000
v 0.224144 -0.965926 0.129410
v 0.129410 0.965926 0.224144
v 0.250000 0.866025 0.433013
v 0.353553 0.707107 0.612372
v 0.433013 0.500000 0.750000
v 0.482963 0.258819 0.836516
v 0.500000 0.000000 0.866025
v 0.482963 -0.258819 0.836516
v 0.433013 -0.500000 0.750000
v 0.353553 -0.707107 0.612372
v 0.250000 -0.866025 0.433013
v 0.129410 -0.965926 0.224144
v 0.000000 0.965926 0.258819
v 0.000000 0.866025 0.500000
v -0.000000 0.707107 0.707107
v -0.000000 0.500000 0.866025
v -0.000000 0.258819 0.965926
v 0.000000 0.000000 1.000000
v -0.000000 -0.258819 0.965926
v -0.000000 -0.500000 0.866025
v -0.000000 -0.707107 0.707107
v 0.000000 -0.866025 0.500000
v 0.000000 -0.965926 0.258819
v -0.129410 0.965926 0.224144
v -0.250000 0.866025 0.433013
v -0.353553 0.707107 0.612372
v -0.433013 0.500000 0.750000
v -0.482963 0.258819 0.836516
v -0.500000 0.000000 0.866025
v -0.482963 -0.258819 0.836516
v -0.433013 -0.500000 0.750000
v -0.353553 -0.707107 0.612372
v -0.250000 -0.866025 0.433013
v -0.129410 -0.965926 0.224144
v -0.224144 0.965926 0.129410
v -0.433013 0.866025 0.250000
v -0.612372 0.707107 0.353553
v -0.750000 0.500000 0.433013
v -0.836516 0.258819 0.482963
v -0.866025 0.000000 0.500000
v -0.836516 -0.258819 0.482963
v -0.750000 -0.500000 0.433013
v -0.612372 -0.707107 0.353553
v -0.433013 -0.866025 0.250000
v -0.224144 -0.965926 0.129410
v 0.000000 1.000000 0.000000
v -0.258819 0.965926 0.000000
v -0.500000 0.866025 0.000000
v -0.707107 0.707107 -0.000000
v -0.866025 0.500000 -0.000000
v -0.965926 0.258819 -0.000000
v -1.000000 0.000000 0.000000
v -0.965926 -0.258819 -0.000000
v -0.866025 -0.500000 -0.000000
v -0.707107 -0.707107 -0.000000
v -0.500000 -0.866025 0.000000
v -0.258819 -0.965926 0.000000
v -0.224144 0.965926 -0.129410
v -0.433013 0.866025 -0.250000
v -0.612372 0.707107 -0.353553
v -0.750000 0.500000 -0.433013
v -0.836516 0.258819 -0.482963
v -0.866025 0.000000 -0.500000
v -0.836516 -0.258819 -0.482963
v -0.750000 -0.500000 -0.433013
v -0.612372 -0.707107 -0.353553
v -0.433013 -0.866025 -0.250000
v -0.224144 -0.965926 -0.129410
v -0.129410 0.965926 -0.224144
v -0.250000 0.866025 -0.433013
v -0.353553 0.707107 -0.612372
v -0.433013 0.500000 -0.750000
v -0.482963 0.258819 -0.836516
v -0.500000 0.000000 -0.866025
v -0.482963 -0.258819 -0.836516
v -0.433013 -0.500000 -0.750000
v -0.353553 -0.707107 -0.612372
v -0.250000 -0.866025 -0.433013
v -0.129410 -0.965926 -0.224144
v 0.000000 0.965926 -0.258819
v 0.000000 0.866025 -0.500000
v 0.000000 0.500000 -0.866025
v 0.000000 0.000000 -1.000000
v 0.000000 -0.707107 -0.707107
v 0.000000 -0.866025 -0.500000
v 0.000000 -0.965926 -0.258819
v 0.000000 -1.000000 0.000000
vn 0.1610 -0.7830 -0.6008
vn 0.2568 -0.1262 -0.9582
vn 0.2079 0.5955 -0.7760
vn 0.1020 -0.9191 -0.3807
vn 0.0350 0.9908 -0.1304
vn 0.2403 -0.3715 -0.8968
vn 0.2403 0.3715 -0.8968
vn 0.0350 -0.9908 -0.1304
vn 0.1020 0.9191 -0.3807
vn 0.2079 -0.5955 -0.7760
vn 0.2568 0.1262 -0.9582
vn 0.1610 0.7830 -0.6008
vn 0.6565 0.3715 -0.6565
vn 0.0955 -0.9908 -0.0955
vn 0.2787 0.9191 -0.2787
vn 0.5681 -0.5955 -0.5681
vn 0.7015 0.1262 -0.7015
vn 0.4398 0.7830 -0.4398
vn 0.4398 -0.7830 -0.4398
vn 0.7015 -0.1262 -0.7015
vn 0.5681 0.5955 -0.5681
vn 0.2787 -0.9191 -0.2787
vn 0.0955 0.9908 -0.0955
vn 0.6565 -0.3715 -0.6565
vn 0.9582 -0.1262 -0.2568
vn 0.7760 0.5955 -0.2079
vn 0.3807 -0.9191 -0.1020
vn 0.1304 0.9908 -0.0350
vn 0.8968 -0.3715 -0.2403
vn 0.8968 0.3715 -0.2403
vn 0.1304 -0.9908 -0.0350
vn 0.3807 0.9191 -0.1020
vn 0.7760 -0.5955 -0.2079
vn 0.9582 0.1262 -0.2568
vn 0.6008 0.7830 -0.1610
vn 0.6008 -0.7830 -0.1610
vn 0.9582 0.1262 0.2568
vn 0.6008 0.7830 0.1610
vn 0.6008 -0.7830 0.1610
vn 0.9582 -0.1262 0.2568
vn 0.7760 0.5955 0.2079
vn 0.3807 -0.9191 0.1020
vn 0.1304 0.9908 0.0350
vn 0.8968 -0.3715 0.2403
vn 0.8968 0.3715 0.2403
vn 0.1304 -0.9908 0.0350
vn 0.3807 0.9191 0.1020
vn 0.7760 -0.5955 0.2079
vn 0.6565 -0.3715 0.6565
vn 0.6565 0.3715 0.6565
vn 0.0955 -0.9908 0.0955
vn 0.2787 0.9191 0.2787
vn 0.5681 -0.5955 0.5681
vn 0.7015 0.1262 0.7015
vn 0.4398 0.7830 0.4398
vn 0.4398 -0.7830 0.4398
vn 0.7015 -0.1262 0.7015
vn 0.5681 0.5955 0.5681
vn 0.2787 -0.9191 0.2787
vn 0.0955 0.9908 0.0955
vn 0.2568 -0.1262 0.9582
vn 0.2079 0.5955 0.7760
vn 0.1020 -0.9191 0.3807
vn 0.0350 0.9908 0.1304
vn 0.2403 -0.3715 0.8968
vn 0.2403 0.3715 0.8968
vn 0.0350 -0.9908 0.1304
vn 0.1020 0.9191 0.3807
vn 0.2079 -0.5955 0.7760
vn 0.2568 0.1262 0.9582
vn 0.1610 0.7830 0.6008
vn 0.1610 -0.7830 0.6008
vn -0.2079 -0.5955 0.7760
vn -0.2568 0.1262 0.9582
vn -0.1610 0.7830 0.6008
vn -0.1610 -0.7830 0.6008
vn -0.2568 -0.1262 0.9582
vn -0.2079 0.5955 0.7760
vn -0.1020 -0.9191 0.3807
vn -0.0350 0.9908 0.1304
vn -0.2403 -0.3715 0.8968
vn -0.2403 0.3715 0.8968
vn -0.0350 -0.9908 0.1304
vn -0.1020 0.9191 0.3807
vn -0.0955 0.9908 0.0955
vn -0.6565 -0.3715 0.6565
vn -0.6565 0.3715 0.6565
vn -0.0955 -0.9908 0.0955
vn -0.2787 0.9191 0.2787
vn -0.5681 -0.5955 0.5681
vn -0.7015 0.1262 0.7015
vn -0.4398 0.7830 0.4398
vn -0.4398 -0.7830 0.4398
vn -0.7015 -0.1262 0.7015
vn -0.5681 0.5955 0.5681
vn -0.2787 -0.9191 0.2787
vn -0.6008 -0.7830 0.1610
vn -0.9582 -0.1262 0.2568
vn -0.7760 0.5955 0.2079
vn -0.3807 -0.9191 0.1020
vn -0.1304 0.9908 0.0350
vn -0.8968 -0.3715 0.2403
vn -0.8968 0.3715 0.2403
vn -0.1304 -0.9908 0.0350
vn -0.3807 0.9191 0.1020
vn -0.7760 -0.5955 0.2079
vn -0.9582 0.1262 0.2568
vn -0.6008 0.7830 0.1610
vn -0.3807 0.9191 -0.1020
vn -0.7760 -0.5955 -0.2079
vn -0.9582 0.1262 -0.2568
vn -0.6008 0.7830 -0.1610
vn -0.6008 -0.7830 -0.1610
vn -0.9582 -0.1262 -0.2568
vn -0.7760 0.5955 -0.2079
vn -0.3807 -0.9191 -0.1020
vn -0.1304 0.9908 -0.0350
vn -0.8968 -0.3715 -0.2403
vn -0.8968 0.3715 -0.2403
vn -0.1304 -0.9908 -0.0350
vn -0.2787 -0.9191 -0.2787
vn -0.0955 0.9908 -0.0955
vn -0.6565 -0.3715 -0.6565
vn -0.6565 0.3715 -0.6565
vn -0.0955 -0.9908 -0.0955
vn -0.2787 0.9191 -0.2787
vn -0.5681 -0.5955 -0.5681
vn -0.7015 0.1262 -0.7015
vn -0.4398 0.7830 -0.4398
vn -0.4398 -0.7830 -0.4398
vn -0.7015 -0.1262 -0.7015
vn -0.5681 0.5955 -0.5681
vn -0.1610 0.7830 -0.6008
vn -0.1610 -0.7830 -0.6008
vn -0.2568 -0.1262 -0.9582
vn -0.2079 0.5955 -0.7760
vn -0.1020 -0.9191 -0.3807
vn -0.0350 0.9908 -0.1304
vn -0.2403 -0.3715 -0.8968
vn -0.2403 0.3715 -0.8968
vn -0.0350 -0.9908 -0.1304
vn -0.1020 0.9191 -0.3807
vn -0.2079 -0.5955 -0.7760
vn -0.2568 0.1262 -0.9582
vt 0.750000 0.250000
vt 0.666667 0.166667
vt 0.750000 0.166667
vt 0.750000 0.416667
vt 0.666667 0.500000
vt 0.666667 0.416667
vt 0.750000 0.666667
vt 0.666667 0.750000
vt 0.666667 0.666667
vt 0.666667 0.083333
vt 0.750000 0.083333
vt 0.750000 0.916667
vt 0.708333 1.000000
vt 0.666667 0.916667
vt 0.666667 0.333333
vt 0.750000 0.333333
vt 0.666667 0.583333
vt 0.750000 0.583333
vt 0.708333 0.000000
vt 0.666667 0.833333
vt 0.750000 0.833333
vt 0.666667 0.250000
vt 0.750000 0.500000
vt 0.750000 0.750000
vt 0.583333 0.583333
vt 0.625000 0.000000
vt 0.583333 0.083333
vt 0.583333 0.833333
vt 0.583333 0.333333
vt 0.583333 0.250000
vt 0.583333 0.500000
vt 0.583333 0.750000
vt 0.583333 0.166667
vt 0.583333 0.416667
vt 0.583333 0.666667
vt 0.625000 1.000000
vt 0.583333 0.916667
vt 0.500000 0.500000
vt 0.500000 0.416667
vt 0.500000 0.666667
vt 0.500000 0.166667
vt 0.500000 0.083333
vt 0.541667 1.000000
vt 0.500000 0.916667
vt 0.500000 0.333333
vt 0.500000 0.583333
vt 0.541667 0.000000
vt 0.500000 0.833333
vt 0.500000 0.250000
vt 0.500000 0.750000
vt 0.416667 0.500000
vt 0.416667 0.833333
vt 0.416667 0.750000
vt 0.416667 0.166667
vt 0.416667 0.416667
vt 0.416667 0.666667
vt 0.416667 0.083333
vt 0.458333 1.000000
vt 0.416667 0.916667
vt 0.416667 0.333333
vt 0.416667 0.583333
vt 0.458333 0.000000
vt 0.416667 0.250000
vt 0.333333 0.333333
vt 0.333333 0.583333
vt 0.375000 0.000000
vt 0.333333 0.083333
vt 0.333333 0.833333
vt 0.333333 0.250000
vt 0.333333 0.500000
vt 0.333333 0.750000
vt 0.333333 0.166667
vt 0.333333 0.416667
vt 0.333333 0.666667
vt 0.375000 1.000000
vt 0.333333 0.916667
vt 0.250000 0.500000
vt 0.250000 0.416667
vt 0.250000 0.666667
vt 0.250000 0.166667
vt 0.250000 0.083333
vt 0.291667 1.000000
vt 0.250000 0.916667
vt 0.250000 0.333333
vt 0.250000 0.583333
vt 0.291667 0.000000
vt 0.250000 0.833333
vt 0.250000 0.250000
vt 0.250000 0.750000
vt 0.166667 0.250000
vt 0.166667 0.500000
vt 0.166667 0.833333
vt 0.166667 0.750000
vt 0.166667 0.166667
vt 0.166667 0.416667
vt 0.166667 0.666667
vt 0.166667 0.083333
vt 0.208333 1.000000
vt 0.166667 0.916667
vt 0.166667 0.333333
vt 0.166667 0.583333
vt 0.208333 0.000000
vt 0.125000 1.000000
vt 0.083333 0.916667
vt 0.083333 0.416667
vt 0.083333 0.333333
vt 0.083333 0.583333
vt 0.125000 0.000000
vt 0.083333 0.083333
vt 0.083333 0.833333
vt 0.083333 0.250000
vt 0.083333 0.500000
vt 0.083333 0.750000
vt 0.083333 0.166667
vt 0.083333 0.666667
vt 0.000000 0.166667
vt 0.000000 0.500000
vt 0.000000 0.416667
vt 0.000000 0.666667
vt 0.000000 0.083333
vt 0.041667 1.000000
vt 0.000000 0.916667
vt 0.000000 0.333333
vt 0.000000 0.583333
vt 0.041667 0.000000
vt 0.000000 0.833333
vt 0.000000 0.250000
vt 0.000000 0.750000
vt 1.000000 0.916667
vt 0.916667 0.833333
vt 1.000000 0.833333
vt 1.000000 0.250000
vt 0.916667 0.333333
vt 0.916667 0.250000
vt 1.000000 0.583333
vt 0.916667 0.500000
vt 1.000000 0.500000
vt 1.000000 0.750000
vt 0.916667 0.750000
vt 0.916667 0.166667
vt 1.000000 0.166667
vt 1.000000 0.416667
vt 0.916667 0.416667
vt 0.916667 0.666667
vt 1.000000 0.666667
vt 0.916667 0.083333
vt 1.000000 0.083333
vt 0.958333 1.000000
vt 0.916667 0.916667
vt 1.000000 0.333333
vt 0.916667 0.583333
vt 0.958333 0.000000
vt 0.833333 0.166667
vt 0.833333 0.083333
vt 0.875000 1.000000
vt 0.833333 0.916667
vt 0.833333 0.333333
vt 0.833333 0.583333
vt 0.875000 0.000000
vt 0.833333 0.833333
vt 0.833333 0.250000
vt 0.833333 0.500000
vt 0.833333 0.750000
vt 0.833333 0.416667
vt 0.833333 0.666667
vt 0.791667 1.000000
vt 0.791667 0.000000
s 0
f 131/1/1 14/2/1 132/3/1
f 3/4/2 10/5/2 11/6/2
f 129/7/3 7/8/3 8/9/3
f 132/3/4 15/10/4 133/11/4
f 127/12/5 93/13/5 5/14/5
f 3/4/6 12/15/6 4/16/6
f 129/7/7 9/17/7 2/18/7
f 134/19/8 133/11/8 15/10/8
f 127/12/9 6/20/9 128/21/9
f 131/1/10 12/15/10 13/22/10
f 130/23/11 9/17/11 10/5/11
f 128/21/12 7/8/12 1/24/12
f 8/9/13 20/25/13 9/17/13
f 134/26/14 15/10/14 26/27/14
f 5/14/15 17/28/15 6/20/15
f 13/22/16 23/29/16 24/30/16
f 9/17/17 21/31/17 10/5/17
f 6/20/18 18/32/18 7/8/18
f 13/22/19 25/33/19 14/2/19
f 10/5/20 22/34/20 11/6/20
f 7/8/21 19/35/21 8/9/21
f 15/10/22 25/33/22 26/27/22
f 5/14/23 93/36/23 16/37/23
f 11/6/24 23/29/24 12/15/24
f 22/34/25 32/38/25 33/39/25
f 18/32/26 30/40/26 19/35/26
f 26/27/27 36/41/27 37/42/27
f 16/37/28 93/43/28 27/44/28
f 22/34/29 34/45/29 23/29/29
f 20/25/30 30/40/30 31/46/30
f 134/47/31 26/27/31 37/42/31
f 17/28/32 27/44/32 28/48/32
f 24/30/33 34/45/33 35/49/33
f 20/25/34 32/38/34 21/31/34
f 18/32/35 28/48/35 29/50/35
f 24/30/36 36/41/36 25/33/36
f 31/46/37 43/51/37 32/38/37
f 29/50/38 39/52/38 40/53/38
f 35/49/39 47/54/39 36/41/39
f 33/39/40 43/51/40 44/55/40
f 29/50/41 41/56/41 30/40/41
f 36/41/42 48/57/42 37/42/42
f 27/44/43 93/58/43 38/59/43
f 33/39/44 45/60/44 34/45/44
f 31/46/45 41/56/45 42/61/45
f 134/62/46 37/42/46 48/57/46
f 27/44/47 39/52/47 28/48/47
f 34/45/48 46/63/48 35/49/48
f 44/55/49 56/64/49 45/60/49
f 41/56/50 53/65/50 42/61/50
f 134/66/51 48/57/51 59/67/51
f 38/59/52 50/68/52 39/52/52
f 45/60/53 57/69/53 46/63/53
f 42/61/54 54/70/54 43/51/54
f 39/52/55 51/71/55 40/53/55
f 46/63/56 58/72/56 47/54/56
f 44/55/57 54/70/57 55/73/57
f 40/53/58 52/74/58 41/56/58
f 48/57/59 58/72/59 59/67/59
f 38/59/60 93/75/60 49/76/60
f 55/73/61 65/77/61 66/78/61
f 51/71/62 63/79/62 52/74/62
f 59/67/63 69/80/63 70/81/63
f 49/76/64 93/82/64 60/83/64
f 55/73/65 67/84/65 56/64/65
f 52/74/66 64/85/66 53/65/66
f 134/86/67 59/67/67 70/81/67
f 50/68/68 60/83/68 61/87/68
f 56/64/69 68/88/69 57/69/69
f 53/65/70 65/77/70 54/70/70
f 51/71/71 61/87/71 62/89/71
f 57/69/72 69/80/72 58/72/72
f 67/84/73 79/90/73 68/88/73
f 64/85/74 76/91/74 65/77/74
f 62/89/75 72/92/75 73/93/75
f 68/88/76 80/94/76 69/80/76
f 66/78/77 76/91/77 77/95/77
f 63/79/78 73/93/78 74/96/78
f 69/80/79 81/97/79 70/81/79
f 60/83/80 93/98/80 71/99/80
f 67/84/81 77/95/81 78/100/81
f 64/85/82 74/96/82 75/101/82
f 134/102/83 70/81/83 81/97/83
f 60/83/84 72/92/84 61/87/84
f 71/99/85 93/103/85 82/104/85
f 78/100/86 88/105/86 89/106/86
f 74/96/87 86/107/87 75/101/87
f 134/108/88 81/97/88 92/109/88
f 71/99/89 83/110/89 72/92/89
f 78/100/90 90/111/90 79/90/90
f 75/101/91 87/112/91 76/91/91
f 72/92/92 84/113/92 73/93/92
f 79/90/93 91/114/93 80/94/93
f 77/95/94 87/112/94 88/105/94
f 73/93/95 85/115/95 74/96/95
f 81/97/96 91/114/96 92/109/96
f 90/111/97 103/116/97 91/114/97
f 88/105/98 99/117/98 100/118/98
f 84/113/99 97/119/99 85/115/99
f 92/109/100 103/116/100 104/120/100
f 82/104/101 93/121/101 94/122/101
f 88/105/102 101/123/102 89/106/102
f 85/115/103 98/124/103 86/107/103
f 134/125/104 92/109/104 104/120/104
f 83/110/105 94/122/105 95/126/105
f 90/111/106 101/123/106 102/127/106
f 86/107/107 99/117/107 87/112/107
f 84/113/108 95/126/108 96/128/108
f 94/129/109 106/130/109 95/131/109
f 102/132/110 112/133/110 113/134/110
f 98/135/111 110/136/111 99/137/111
f 96/138/112 106/130/112 107/139/112
f 102/132/113 114/140/113 103/141/113
f 100/142/114 110/136/114 111/143/114
f 96/138/115 108/144/115 97/145/115
f 103/141/116 115/146/116 104/147/116
f 94/129/117 93/148/117 105/149/117
f 100/142/118 112/133/118 101/150/118
f 97/145/119 109/151/119 98/135/119
f 134/152/120 104/147/120 115/146/120
f 115/146/121 125/153/121 126/154/121
f 105/149/122 93/155/122 116/156/122
f 111/143/123 123/157/123 112/133/123
f 108/144/124 120/158/124 109/151/124
f 134/159/125 115/146/125 126/154/125
f 105/149/126 117/160/126 106/130/126
f 112/133/127 124/161/127 113/134/127
f 109/151/128 121/162/128 110/136/128
f 106/130/129 118/163/129 107/139/129
f 113/134/130 125/153/130 114/140/130
f 111/143/131 121/162/131 122/164/131
f 107/139/132 119/165/132 108/144/132
f 118/163/133 128/21/133 1/24/133
f 124/161/134 132/3/134 125/153/134
f 122/164/135 130/23/135 3/4/135
f 118/163/136 129/7/136 119/165/136
f 126/154/137 132/3/137 133/11/137
f 116/156/138 93/166/138 127/12/138
f 122/164/139 4/16/139 123/157/139
f 120/158/140 129/7/140 2/18/140
f 134/167/141 126/154/141 133/11/141
f 117/160/142 127/12/142 128/21/142
f 124/161/143 4/16/143 131/1/143
f 120/158/144 130/23/144 121/162/144
f 131/1/1 13/22/1 14/2/1
f 3/4/2 130/23/2 10/5/2
f 129/7/3 1/24/3 7/8/3
f 132/3/4 14/2/4 15/10/4
f 3/4/6 11/6/6 12/15/6
f 129/7/7 8/9/7 9/17/7
f 127/12/9 5/14/9 6/20/9
f 131/1/10 4/16/10 12/15/10
f 130/23/11 2/18/11 9/17/11
f 128/21/12 6/20/12 7/8/12
f 8/9/13 19/35/13 20/25/13
f 5/14/15 16/37/15 17/28/15
f 13/22/16 12/15/16 23/29/16
f 9/17/17 20/25/17 21/31/17
f 6/20/18 17/28/18 18/32/18
f 13/22/19 24/30/19 25/33/19
f 10/5/20 21/31/20 22/34/20
f 7/8/21 18/32/21 19/35/21
f 15/10/22 14/2/22 25/33/22
f 11/6/24 22/34/24 23/29/24
f 22/34/25 21/31/25 32/38/25
f 18/32/26 29/50/26 30/40/26
f 26/27/27 25/33/27 36/41/27
f 22/34/29 33/39/29 34/45/29
f 20/25/30 19/35/30 30/40/30
f 17/28/32 16/37/32 27/44/32
f 24/30/33 23/29/33 34/45/33
f 20/25/34 31/46/34 32/38/34
f 18/32/35 17/28/35 28/48/35
f 24/30/36 35/49/36 36/41/36
f 31/46/37 42/61/37 43/51/37
f 29/50/38 28/48/38 39/52/38
f 35/49/39 46/63/39 47/54/39
f 33/39/40 32/38/40 43/51/40
f 29/50/41 40/53/41 41/56/41
f 36/41/42 47/54/42 48/57/42
f 33/39/44 44/55/44 45/60/44
f 31/46/45 30/40/45 41/56/45
f 27/44/47 38/59/47 39/52/47
f 34/45/48 45/60/48 46/63/48
f 44/55/49 55/73/49 56/64/49
f 41/56/50 52/74/50 53/65/50
f 38/59/52 49/76/52 50/68/52
f 45/60/53 56/64/53 57/69/53
f 42/61/54 53/65/54 54/70/54
f 39/52/55 50/68/55 51/71/55
f 46/63/56 57/69/56 58/72/56
f 44/55/57 43/51/57 54/70/57
f 40/53/58 51/71/58 52/74/58
f 48/57/59 47/54/59 58/72/59
f 55/73/61 54/70/61 65/77/61
f 51/71/62 62/89/62 63/79/62
f 59/67/63 58/72/63 69/80/63
f 55/73/65 66/78/65 67/84/65
f 52/74/66 63/79/66 64/85/66
f 50/68/68 49/76/68 60/83/68
f 56/64/69 67/84/69 68/88/69
f 53/65/70 64/85/70 65/77/70
f 51/71/71 50/68/71 61/87/71
f 57/69/72 68/88/72 69/80/72
f 67/84/73 78/100/73 79/90/73
f 64/85/74 75/101/74 76/91/74
f 62/89/75 61/87/75 72/92/75
f 68/88/76 79/90/76 80/94/76
f 66/78/77 65/77/77 76/91/77
f 63/79/78 62/89/78 73/93/78
f 69/80/79 80/94/79 81/97/79
f 67/84/81 66/78/81 77/95/81
f 64/85/82 63/79/82 74/96/82
f 60/83/84 71/99/84 72/92/84
f 78/100/86 77/95/86 88/105/86
f 74/96/87 85/115/87 86/107/87
f 71/99/89 82/104/89 83/110/89
f 78/100/90 89/106/90 90/111/90
f 75/101/91 86/107/91 87/112/91
f 72/92/92 83/110/92 84/113/92
f 79/90/93 90/111/93 91/114/93
f 77/95/94 76/91/94 87/112/94
f 73/93/95 84/113/95 85/115/95
f 81/97/96 80/94/96 91/114/96
f 90/111/97 102/127/97 103/116/97
f 88/105/98 87/112/98 99/117/98
f 84/113/99 96/128/99 97/119/99
f 92/109/100 91/114/100 103/116/100
f 88/105/102 100/118/102 101/123/102
f 85/115/103 97/119/103 98/124/103
f 83/110/105 82/104/105 94/122/105
f 90/111/106 89/106/106 101/123/106
f 86/107/107 98/124/107 99/117/107
f 84/113/108 83/110/108 95/126/108
f 94/129/109 105/149/109 106/130/109
f 102/132/110 101/150/110 112/133/110
f 98/135/111 109/151/111 110/136/111
f 96/138/112 95/131/112 106/130/112
f 102/132/113 113/134/113 114/140/113
f 100/142/114 99/137/114 110/136/114
f 96/138/115 107/139/115 108/144/115
f 103/141/116 114/140/116 115/146/116
f 100/142/118 111/143/118 112/133/118
f 97/145/119 108/144/119 109/151/119
f 115/146/121 114/140/121 125/153/121
f 111/143/123 122/164/123 123/157/123
f 108/144/124 119/165/124 120/158/124
f 105/149/126 116/156/126 117/160/126
f 112/133/127 123/157/127 124/161/127
f 109/151/128 120/158/128 121/162/128
f 106/130/129 117/160/129 118/163/129
f 113/134/130 124/161/130 125/153/130
f 111/143/131 110/136/131 121/162/131
f 107/139/132 118/163/132 119/165/132
f 118/163/133 117/160/133 128/21/133
f 124/161/134 131/1/134 132/3/134
f 122/164/135 121/162/135 130/23/135
f 118/163/136 1/24/136 129/7/136
f 126/154/137 125/153/137 132/3/137
f 122/164/139 3/4/139 4/16/139
f 120/158/140 119/165/140 129/7/140
f 117/160/142 116/156/142 127/12/142
f 124/161/143 123/157/143 4/16/143
f 120/158/144 2/18/144 130/23/144
