# Blender 4.0.2
# www.blender.org
mtllib sphere.mtl
o sphere
v 0.000000 0.707107 -0.707107
v 0.000000 0.258819 -0.965926
v 0.000000 -0.258819 -0.965926
v 0.000000 -0.500000 -0.866025
v 0.129410 0.965926 -0.224144
v 0.250000 0.866025 -0.433013
v 0.353553 0.707107 -0.612372
v 0.433013 0.500000 -0.750000
v 0.482963 0.258819 -0.836516
v 0.500000 -0.000000 -0.866025
v 0.482963 -0.258819 -0.836516
v 0.433013 -0.500000 -0.750000
v 0.353553 -0.707107 -0.612372
v 0.250000 -0.866025 -0.433013
v 0.129410 -0.965926 -0.224144
v 0.224144 0.965926 -0.129410
v 0.433013 0.866025 -0.250000
v 0.612372 0.707107 -0.353553
v 0.750000 0.500000 -0.433013
v 0.836516 0.258819 -0.482963
v 0.866025 -0.000000 -0.500000
v 0.836516 -0.258819 -0.482963
v 0.750000 -0.500000 -0.433013
v 0.612372 -0.707107 -0.353553
v 0.433013 -0.866025 -0.250000
v 0.224144 -0.965926 -0.129410
v 0.258819 0.965926 -0.000000
v 0.500000 0.866025 -0.000000
v 0.707107 0.707107 -0.000000
v 0.866025 0.500000 -0.000000
v 0.965926 0.258819 -0.000000
v 1.000000 0.000000 0.000000
v 0.965926 -0.258819 0.000000
v 0.866025 -0.500000 0.000000
v 0.707107 -0.707107 0.000000
v 0.500000 -0.866025 0.000000
v 0.258819 -0.965926 0.000000
v 0.224144 0.965926 0.129410
v 0.433013 0.866025 0.250000
v 0.612372 0.707107 0.353553
v 0.750000 0.500000 0.433013
v 0.836516 0.258819 0.482963
v 0.866025 0.000000 0.500000
v 0.836516 -0.258819 0.482963
v 0.750000 -0.500000 0.433013
v 0.612372 -0.707107 0.353553
v 0.433013 -0.866025 0.250000
v 0.224144 -0.965926 0.129410
v 0.129410 0.965926 0.224144
v 0.250000 0.866025 0.433013
v 0.353553 0.707107 0.612372
v 0.433013 0.500000 0.750000
v 0.482963 0.258819 0.836516
v 0.500000 0.000000 0.866025
v 0.482963 -0.258819 0.836516
v 0.433013 -0.500000 0.750000
v 0.353553 -0.707107 0.612372
v 0.250000 -0.866025 0.433013
v 0.129410 -0.965926 0.224144
v 0.000000 0.965926 0.258819
v 0.000000 0.866025 0.500000
v 0.000000 0.707107 0.707107
v 0.000000 0.500000 0.866025
v 0.000000 0.258819 0.965926
v 0.000000 0.000000 1.000000
v 0.000000 -0.258819 0.965926
v 0.000000 -0.500000 0.866025
v 0.000000 -0.707107 0.707107
v 0.000000 -0.866025 0.500000
v 0.000000 -0.965926 0.258819
v -0.129410 0.965926 0.224144
v -0.250000 0.866025 0.433013
v -0.353553 0.707107 0.612372
v -0.433013 0.500000 0.750000
v -0.482963 0.258819 0.836516
v -0.500000 0.000000 0.866025
v -0.482963 -0.258819 0.836516
v -0.433013 -0.500000 0.750000
v -0.353553 -0.707107 0.612372
v -0.250000 -0.866025 0.433013
v -0.129410 -0.965926 0.224144
v -0.224144 0.965926 0.129410
v -0.433013 0.866025 0.250000
v -0.612372 0.707107 0.353553
v -0.750000 0.500000 0.433013
v -0.836516 0.258819 0.482963
v -0.866025 0.000000 0.500000
v -0.836516 -0.258819 0.482963
v -0.750000 -0.500000 0.433013
v -0.612372 -0.707107 0.353553
v -0.433013 -0.866025 0.250000
v -0.224144 -0.965926 0.129410
v 0.000000 1.000000 -0.000000
v -0.258819 0.965926 -0.000000
v -0.500000 0.866025 -0.000000
v -0.707107 0.707107 -0.000000
v -0.866025 0.500000 -0.000000
v -0.965926 0.258819 -0.000000
v -1.000000 0.000000 0.000000
v -0.965926 -0.258819 0.000000
v -0.866025 -0.500000 0.000000
v -0.707107 -0.707107 0.000000
v -0.500000 -0.866025 0.000000
v -0.258819 -0.965926 0.000000
v -0.224144 0.965926 -0.129410
v -0.433013 0.866025 -0.250000
v -0.612372 0.707107 -0.353553
v -0.750000 0.500000 -0.433013
v -0.836516 0.258819 -0.482963
v -0.866025 -0.000000 -0.500000
v -0.836516 -0.258819 -0.482963
v -0.750000 -0.500000 -0.433013
v -0.612372 -0.707107 -0.353553
v -0.433013 -0.866025 -0.250000
v -0.224144 -0.965926 -0.129410
v -0.129410 0.965926 -0.224144
v -0.250000 0.866025 -0.433013
v -0.353553 0.707107 -0.612372
v -0.433013 0.500000 -0.750000
v -0.482963 0.258819 -0.836516
v -0.500000 -0.000000 -0.866025
v -0.482963 -0.258819 -0.836516
v -0.433013 -0.500000 -0.750000
v -0.353553 -0.707107 -0.612372
v -0.250000 -0.866025 -0.433013
v -0.129410 -0.965926 -0.224144
v 0.000000 0.965926 -0.258819
v 0.000000 0.866025 -0.500000
v 0.000000 0.500000 -0.866025
v 0.000000 -0.000000 -1.000000
v 0.000000 -0.707107 -0.707107
v 0.000000 -0.866025 -0.500000
v 0.000000 -0.965926 -0.258819
v 0.000000 -1.000000 0.000000
vn -0.0000 -0.6965 -0.7176
vn 0.2580 -0.8566 -0.4468
vn -0.0000 -0.8566 -0.5159
vn -0.0000 -0.2536 -0.9673
vn 0.5000 -0.0000 -0.8660
vn 0.4837 -0.2536 -0.8377
vn -0.0000 0.4909 -0.8712
vn 0.3588 0.6965 -0.6215
vn 0.4356 0.4909 -0.7545
vn 0.1394 -0.9603 -0.2415
vn -0.0000 -0.9603 -0.2789
vn -0.0000 0.9603 -0.2789
vn -0.0000 1.0000 -0.0000
vn 0.1394 0.9603 -0.2415
vn 0.4356 -0.4909 -0.7545
vn -0.0000 -0.4909 -0.8712
vn 0.4837 0.2536 -0.8377
vn -0.0000 0.2536 -0.9673
vn -0.0000 -1.0000 -0.0000
vn 0.2580 0.8566 -0.4468
vn -0.0000 0.8566 -0.5159
vn 0.3588 -0.6965 -0.6215
vn -0.0000 -0.0000 -1.0000
vn -0.0000 0.6965 -0.7176
vn 0.8377 0.2536 -0.4837
vn 0.2415 -0.9603 -0.1394
vn 0.4468 0.8566 -0.2580
vn 0.7545 -0.4909 -0.4356
vn 0.6215 -0.6965 -0.3588
vn 0.8660 -0.0000 -0.5000
vn 0.6215 0.6965 -0.3588
vn 0.4468 -0.8566 -0.2580
vn 0.8377 -0.2536 -0.4837
vn 0.7545 0.4909 -0.4356
vn 0.2415 0.9603 -0.1394
vn 1.0000 -0.0000 -0.0000
vn 0.9673 -0.2536 -0.0000
vn 0.8712 0.4909 -0.0000
vn 0.5159 -0.8566 -0.0000
vn 0.2789 -0.9603 -0.0000
vn 0.2789 0.9603 -0.0000
vn 0.8712 -0.4909 -0.0000
vn 0.9673 0.2536 -0.0000
vn 0.5159 0.8566 -0.0000
vn 0.7176 -0.6965 -0.0000
vn 0.7176 0.6965 -0.0000
vn 0.8660 -0.0000 0.5000
vn 0.4468 0.8566 0.2580
vn 0.6215 0.6965 0.3588
vn 0.4468 -0.8566 0.2580
vn 0.8377 -0.2536 0.4837
vn 0.7545 0.4909 0.4356
vn 0.2415 -0.9603 0.1394
vn 0.2415 0.9603 0.1394
vn 0.7545 -0.4909 0.4356
vn 0.8377 0.2536 0.4837
vn 0.6215 -0.6965 0.3588
vn 0.4356 -0.4909 0.7545
vn 0.4837 0.2536 0.8377
vn 0.1394 -0.9603 0.2415
vn 0.2580 0.8566 0.4468
vn 0.3588 -0.6965 0.6215
vn 0.5000 -0.0000 0.8660
vn 0.3588 0.6965 0.6215
vn 0.2580 -0.8566 0.4468
vn 0.4837 -0.2536 0.8377
vn 0.4356 0.4909 0.7545
vn 0.1394 0.9603 0.2415
vn -0.0000 -0.0000 1.0000
vn -0.0000 -0.2536 0.9673
vn -0.0000 0.4909 0.8712
vn -0.0000 -0.8566 0.5159
vn -0.0000 -0.9603 0.2789
vn -0.0000 0.9603 0.2789
vn -0.0000 -0.4909 0.8712
vn -0.0000 0.2536 0.9673
vn -0.0000 0.8566 0.5159
vn -0.0000 -0.6965 0.7176
vn -0.0000 0.6965 0.7176
vn -0.3588 -0.6965 0.6215
vn -0.5000 -0.0000 0.8660
vn -0.2580 0.8566 0.4468
vn -0.3588 0.6965 0.6215
vn -0.2580 -0.8566 0.4468
vn -0.4837 -0.2536 0.8377
vn -0.4356 0.4909 0.7545
vn -0.1394 -0.9603 0.2415
vn -0.1394 0.9603 0.2415
vn -0.4356 -0.4909 0.7545
vn -0.4837 0.2536 0.8377
vn -0.2415 0.9603 0.1394
vn -0.8377 -0.2536 0.4837
vn -0.7545 -0.4909 0.4356
vn -0.8377 0.2536 0.4837
vn -0.2415 -0.9603 0.1394
vn -0.4468 0.8566 0.2580
vn -0.6215 -0.6965 0.3588
vn -0.8660 -0.0000 0.5000
vn -0.6215 0.6965 0.3588
vn -0.4468 -0.8566 0.2580
vn -0.7545 0.4909 0.4356
vn -0.5159 -0.8566 -0.0000
vn -1.0000 -0.0000 -0.0000
vn -0.9673 -0.2536 -0.0000
vn -0.8712 0.4909 -0.0000
vn -0.2789 -0.9603 -0.0000
vn -0.2789 0.9603 -0.0000
vn -0.8712 -0.4909 -0.0000
vn -0.9673 0.2536 -0.0000
vn -0.5159 0.8566 -0.0000
vn -0.7176 -0.6965 -0.0000
vn -0.7176 0.6965 -0.0000
vn -0.4468 0.8566 -0.2580
vn -0.7545 -0.4909 -0.4356
vn -0.6215 -0.6965 -0.3588
vn -0.8660 -0.0000 -0.5000
vn -0.6215 0.6965 -0.3588
vn -0.4468 -0.8566 -0.2580
vn -0.8377 -0.2536 -0.4837
vn -0.7545 0.4909 -0.4356
vn -0.2415 -0.9603 -0.1394
vn -0.2415 0.9603 -0.1394
vn -0.8377 0.2536 -0.4837
vn -0.2580 -0.8566 -0.4468
vn -0.1394 -0.9603 -0.2415
vn -0.1394 0.9603 -0.2415
vn -0.4356 -0.4909 -0.7545
vn -0.4837 0.2536 -0.8377
vn -0.2580 0.8566 -0.4468
vn -0.3588 -0.6965 -0.6215
vn -0.5000 -0.0000 -0.8660
vn -0.3588 0.6965 -0.6215
vn -0.4837 -0.2536 -0.8377
vn -0.4356 0.4909 -0.7545
vt 0.750000 0.250000
vt 0.666667 0.166667
vt 0.750000 0.166667
vt 0.750000 0.416667
vt 0.666667 0.500000
vt 0.666667 0.416667
vt 0.750000 0.666667
vt 0.666667 0.750000
vt 0.666667 0.666667
vt 0.666667 0.083333
vt 0.750000 0.083333
vt 0.750000 0.916667
vt 0.708333 1.000000
vt 0.666667 0.916667
vt 0.666667 0.333333
vt 0.750000 0.333333
vt 0.666667 0.583333
vt 0.750000 0.583333
vt 0.708333 0.000000
vt 0.666667 0.833333
vt 0.750000 0.833333
vt 0.666667 0.250000
vt 0.750000 0.500000
vt 0.750000 0.750000
vt 0.583333 0.583333
vt 0.625000 0.000000
vt 0.583333 0.083333
vt 0.583333 0.833333
vt 0.583333 0.333333
vt 0.583333 0.250000
vt 0.583333 0.500000
vt 0.583333 0.750000
vt 0.583333 0.166667
vt 0.583333 0.416667
vt 0.583333 0.666667
vt 0.625000 1.000000
vt 0.583333 0.916667
vt 0.500000 0.500000
vt 0.500000 0.416667
vt 0.500000 0.666667
vt 0.500000 0.166667
vt 0.500000 0.083333
vt 0.541667 1.000000
vt 0.500000 0.916667
vt 0.500000 0.333333
vt 0.500000 0.583333
vt 0.541667 0.000000
vt 0.500000 0.833333
vt 0.500000 0.250000
vt 0.500000 0.750000
vt 0.416667 0.500000
vt 0.416667 0.833333
vt 0.416667 0.750000
vt 0.416667 0.166667
vt 0.416667 0.416667
vt 0.416667 0.666667
vt 0.416667 0.083333
vt 0.458333 1.000000
vt 0.416667 0.916667
vt 0.416667 0.333333
vt 0.416667 0.583333
vt 0.458333 0.000000
vt 0.416667 0.250000
vt 0.333333 0.333333
vt 0.333333 0.583333
vt 0.375000 0.000000
vt 0.333333 0.083333
vt 0.333333 0.833333
vt 0.333333 0.250000
vt 0.333333 0.500000
vt 0.333333 0.750000
vt 0.333333 0.166667
vt 0.333333 0.416667
vt 0.333333 0.666667
vt 0.375000 1.000000
vt 0.333333 0.916667
vt 0.250000 0.500000
vt 0.250000 0.416667
vt 0.250000 0.666667
vt 0.250000 0.166667
vt 0.250000 0.083333
vt 0.291667 1.000000
vt 0.250000 0.916667
vt 0.250000 0.333333
vt 0.250000 0.583333
vt 0.291667 0.000000
vt 0.250000 0.833333
vt 0.250000 0.250000
vt 0.250000 0.750000
vt 0.166667 0.250000
vt 0.166667 0.500000
vt 0.166667 0.833333
vt 0.166667 0.750000
vt 0.166667 0.166667
vt 0.166667 0.416667
vt 0.166667 0.666667
vt 0.166667 0.083333
vt 0.208333 1.000000
vt 0.166667 0.916667
vt 0.166667 0.333333
vt 0.166667 0.583333
vt 0.208333 0.000000
vt 0.125000 1.000000
vt 0.083333 0.916667
vt 0.083333 0.416667
vt 0.083333 0.333333
vt 0.083333 0.583333
vt 0.125000 0.000000
vt 0.083333 0.083333
vt 0.083333 0.833333
vt 0.083333 0.250000
vt 0.083333 0.500000
vt 0.083333 0.750000
vt 0.083333 0.166667
vt 0.083333 0.666667
vt 0.000000 0.166667
vt 0.000000 0.500000
vt 0.000000 0.416667
vt 0.000000 0.666667
vt 0.000000 0.083333
vt 0.041667 1.000000
vt 0.000000 0.916667
vt 0.000000 0.333333
vt 0.000000 0.583333
vt 0.041667 0.000000
vt 0.000000 0.833333
vt 0.000000 0.250000
vt 0.000000 0.750000
vt 1.000000 0.916667
vt 0.916667 0.833333
vt 1.000000 0.833333
vt 1.000000 0.250000
vt 0.916667 0.333333
vt 0.916667 0.250000
vt 1.000000 0.583333
vt 0.916667 0.500000
vt 1.000000 0.500000
vt 1.000000 0.750000
vt 0.916667 0.750000
vt 0.916667 0.166667
vt 1.000000 0.166667
vt 1.000000 0.416667
vt 0.916667 0.416667
vt 0.916667 0.666667
vt 1.000000 0.666667
vt 0.916667 0.083333
vt 1.000000 0.083333
vt 0.958333 1.000000
vt 0.916667 0.916667
vt 1.000000 0.333333
vt 0.916667 0.583333
vt 0.958333 0.000000
vt 0.833333 0.166667
vt 0.833333 0.083333
vt 0.875000 1.000000
vt 0.833333 0.916667
vt 0.833333 0.333333
vt 0.833333 0.583333
vt 0.875000 0.000000
vt 0.833333 0.833333
vt 0.833333 0.250000
vt 0.833333 0.500000
vt 0.833333 0.750000
vt 0.833333 0.416667
vt 0.833333 0.666667
vt 0.791667 1.000000
vt 0.791667 0.000000
s 1
f 131/1/1 14/2/2 132/3/3
f 3/4/4 10/5/5 11/6/6
f 129/7/7 7/8/8 8/9/9
f 132/3/3 15/10/10 133/11/11
f 127/12/12 93/13/13 5/14/14
f 3/4/4 12/15/15 4/16/16
f 129/7/7 9/17/17 2/18/18
f 134/19/19 133/11/11 15/10/10
f 127/12/12 6/20/20 128/21/21
f 131/1/1 12/15/15 13/22/22
f 130/23/23 9/17/17 10/5/5
f 128/21/21 7/8/8 1/24/24
f 8/9/9 20/25/25 9/17/17
f 134/26/19 15/10/10 26/27/26
f 5/14/14 17/28/27 6/20/20
f 13/22/22 23/29/28 24/30/29
f 9/17/17 21/31/30 10/5/5
f 6/20/20 18/32/31 7/8/8
f 13/22/22 25/33/32 14/2/2
f 10/5/5 22/34/33 11/6/6
f 7/8/8 19/35/34 8/9/9
f 15/10/10 25/33/32 26/27/26
f 5/14/14 93/36/13 16/37/35
f 11/6/6 23/29/28 12/15/15
f 22/34/33 32/38/36 33/39/37
f 18/32/31 30/40/38 19/35/34
f 26/27/26 36/41/39 37/42/40
f 16/37/35 93/43/13 27/44/41
f 22/34/33 34/45/42 23/29/28
f 20/25/25 30/40/38 31/46/43
f 134/47/19 26/27/26 37/42/40
f 17/28/27 27/44/41 28/48/44
f 24/30/29 34/45/42 35/49/45
f 20/25/25 32/38/36 21/31/30
f 18/32/31 28/48/44 29/50/46
f 24/30/29 36/41/39 25/33/32
f 31/46/43 43/51/47 32/38/36
f 29/50/46 39/52/48 40/53/49
f 35/49/45 47/54/50 36/41/39
f 33/39/37 43/51/47 44/55/51
f 29/50/46 41/56/52 30/40/38
f 36/41/39 48/57/53 37/42/40
f 27/44/41 93/58/13 38/59/54
f 33/39/37 45/60/55 34/45/42
f 31/46/43 41/56/52 42/61/56
f 134/62/19 37/42/40 48/57/53
f 27/44/41 39/52/48 28/48/44
f 34/45/42 46/63/57 35/49/45
f 44/55/51 56/64/58 45/60/55
f 41/56/52 53/65/59 42/61/56
f 134/66/19 48/57/53 59/67/60
f 38/59/54 50/68/61 39/52/48
f 45/60/55 57/69/62 46/63/57
f 42/61/56 54/70/63 43/51/47
f 39/52/48 51/71/64 40/53/49
f 46/63/57 58/72/65 47/54/50
f 44/55/51 54/70/63 55/73/66
f 40/53/49 52/74/67 41/56/52
f 48/57/53 58/72/65 59/67/60
f 38/59/54 93/75/13 49/76/68
f 55/73/66 65/77/69 66/78/70
f 51/71/64 63/79/71 52/74/67
f 59/67/60 69/80/72 70/81/73
f 49/76/68 93/82/13 60/83/74
f 55/73/66 67/84/75 56/64/58
f 52/74/67 64/85/76 53/65/59
f 134/86/19 59/67/60 70/81/73
f 50/68/61 60/83/74 61/87/77
f 56/64/58 68/88/78 57/69/62
f 53/65/59 65/77/69 54/70/63
f 51/71/64 61/87/77 62/89/79
f 57/69/62 69/80/72 58/72/65
f 67/84/75 79/90/80 68/88/78
f 64/85/76 76/91/81 65/77/69
f 62/89/79 72/92/82 73/93/83
f 68/88/78 80/94/84 69/80/72
f 66/78/70 76/91/81 77/95/85
f 63/79/71 73/93/83 74/96/86
f 69/80/72 81/97/87 70/81/73
f 60/83/74 93/98/13 71/99/88
f 67/84/75 77/95/85 78/100/89
f 64/85/76 74/96/86 75/101/90
f 134/102/19 70/81/73 81/97/87
f 60/83/74 72/92/82 61/87/77
f 71/99/88 93/103/13 82/104/91
f 78/100/89 88/105/92 89/106/93
f 74/96/86 86/107/94 75/101/90
f 134/108/19 81/97/87 92/109/95
f 71/99/88 83/110/96 72/92/82
f 78/100/89 90/111/97 79/90/80
f 75/101/90 87/112/98 76/91/81
f 72/92/82 84/113/99 73/93/83
f 79/90/80 91/114/100 80/94/84
f 77/95/85 87/112/98 88/105/92
f 73/93/83 85/115/101 74/96/86
f 81/97/87 91/114/100 92/109/95
f 90/111/97 103/116/102 91/114/100
f 88/105/92 99/117/103 100/118/104
f 84/113/99 97/119/105 85/115/101
f 92/109/95 103/116/102 104/120/106
f 82/104/91 93/121/13 94/122/107
f 88/105/92 101/123/108 89/106/93
f 85/115/101 98/124/109 86/107/94
f 134/125/19 92/109/95 104/120/106
f 83/110/96 94/122/107 95/126/110
f 90/111/97 101/123/108 102/127/111
f 86/107/94 99/117/103 87/112/98
f 84/113/99 95/126/110 96/128/112
f 94/129/107 106/130/113 95/131/110
f 102/132/111 112/133/114 113/134/115
f 98/135/109 110/136/116 99/137/103
f 96/138/112 106/130/113 107/139/117
f 102/132/111 114/140/118 103/141/102
f 100/142/104 110/136/116 111/143/119
f 96/138/112 108/144/120 97/145/105
f 103/141/102 115/146/121 104/147/106
f 94/129/107 93/148/13 105/149/122
f 100/142/104 112/133/114 101/150/108
f 97/145/105 109/151/123 98/135/109
f 134/152/19 104/147/106 115/146/121
f 115/146/121 125/153/124 126/154/125
f 105/149/122 93/155/13 116/156/126
f 111/143/119 123/157/127 112/133/114
f 108/144/120 120/158/128 109/151/123
f 134/159/19 115/146/121 126/154/125
f 105/149/122 117/160/129 106/130/113
f 112/133/114 124/161/130 113/134/115
f 109/151/123 121/162/131 110/136/116
f 106/130/113 118/163/132 107/139/117
f 113/134/115 125/153/124 114/140/118
f 111/143/119 121/162/131 122/164/133
f 107/139/117 119/165/134 108/144/120
f 118/163/132 128/21/21 1/24/24
f 124/161/130 132/3/3 125/153/124
f 122/164/133 130/23/23 3/4/4
f 118/163/132 129/7/7 119/165/134
f 126/154/125 132/3/3 133/11/11
f 116/156/126 93/166/13 127/12/12
f 122/164/133 4/16/16 123/157/127
f 120/158/128 129/7/7 2/18/18
f 134/167/19 126/154/125 133/11/11
f 117/160/129 127/12/12 128/21/21
f 124/161/130 4/16/16 131/1/1
f 120/158/128 130/23/23 121/162/131
f 131/1/1 13/22/22 14/2/2
f 3/4/4 130/23/23 10/5/5
f 129/7/7 1/24/24 7/8/8
f 132/3/3 14/2/2 15/10/10
f 3/4/4 11/6/6 12/15/15
f 129/7/7 8/9/9 9/17/17
f 127/12/12 5/14/14 6/20/20
f 131/1/1 4/16/16 12/15/15
f 130/23/23 2/18/18 9/17/17
f 128/21/21 6/20/20 7/8/8
f 8/9/9 19/35/34 20/25/25
f 5/14/14 16/37/35 17/28/27
f 13/22/22 12/15/15 23/29/28
f 9/17/17 20/25/25 21/31/30
f 6/20/20 17/28/27 18/32/31
f 13/22/22 24/30/29 25/33/32
f 10/5/5 21/31/30 22/34/33
f 7/8/8 18/32/31 19/35/34
f 15/10/10 14/2/2 25/33/32
f 11/6/6 22/34/33 23/29/28
f 22/34/33 21/31/30 32/38/36
f 18/32/31 29/50/46 30/40/38
f 26/27/26 25/33/32 36/41/39
f 22/34/33 33/39/37 34/45/42
f 20/25/25 19/35/34 30/40/38
f 17/28/27 16/37/35 27/44/41
f 24/30/29 23/29/28 34/45/42
f 20/25/25 31/46/43 32/38/36
f 18/32/31 17/28/27 28/48/44
f 24/30/29 35/49/45 36/41/39
f 31/46/43 42/61/56 43/51/47
f 29/50/46 28/48/44 39/52/48
f 35/49/45 46/63/57 47/54/50
f 33/39/37 32/38/36 43/51/47
f 29/50/46 40/53/49 41/56/52
f 36/41/39 47/54/50 48/57/53
f 33/39/37 44/55/51 45/60/55
f 31/46/43 30/40/38 41/56/52
f 27/44/41 38/59/54 39/52/48
f 34/45/42 45/60/55 46/63/57
f 44/55/51 55/73/66 56/64/58
f 41/56/52 52/74/67 53/65/59
f 38/59/54 49/76/68 50/68/61
f 45/60/55 56/64/58 57/69/62
f 42/61/56 53/65/59 54/70/63
f 39/52/48 50/68/61 51/71/64
f 46/63/57 57/69/62 58/72/65
f 44/55/51 43/51/47 54/70/63
f 40/53/49 51/71/64 52/74/67
f 48/57/53 47/54/50 58/72/65
f 55/73/66 54/70/63 65/77/69
f 51/71/64 62/89/79 63/79/71
f 59/67/60 58/72/65 69/80/72
f 55/73/66 66/78/70 67/84/75
f 52/74/67 63/79/71 64/85/76
f 50/68/61 49/76/68 60/83/74
f 56/64/58 67/84/75 68/88/78
f 53/65/59 64/85/76 65/77/69
f 51/71/64 50/68/61 61/87/77
f 57/69/62 68/88/78 69/80/72
f 67/84/75 78/100/89 79/90/80
f 64/85/76 75/101/90 76/91/81
f 62/89/79 61/87/77 72/92/82
f 68/88/78 79/90/80 80/94/84
f 66/78/70 65/77/69 76/91/81
f 63/79/71 62/89/79 73/93/83
f 69/80/72 80/94/84 81/97/87
f 67/84/75 66/78/70 77/95/85
f 64/85/76 63/79/71 74/96/86
f 60/83/74 71/99/88 72/92/82
f 78/100/89 77/95/85 88/105/92
f 74/96/86 85/115/101 86/107/94
f 71/99/88 82/104/91 83/110/96
f 78/100/89 89/106/93 90/111/97
f 75/101/90 86/107/94 87/112/98
f 72/92/82 83/110/96 84/113/99
f 79/90/80 90/111/97 91/114/100
f 77/95/85 76/91/81 87/112/98
f 73/93/83 84/113/99 85/115/101
f 81/97/87 80/94/84 91/114/100
f 90/111/97 102/127/111 103/116/102
f 88/105/92 87/112/98 99/117/103
f 84/113/99 96/128/112 97/119/105
f 92/109/95 91/114/100 103/116/102
f 88/105/92 100/118/104 101/123/108
f 85/115/101 97/119/105 98/124/109
f 83/110/96 82/104/91 94/122/107
f 90/111/97 89/106/93 101/123/108
f 86/107/94 98/124/109 99/117/103
f 84/113/99 83/110/96 95/126/110
f 94/129/107 105/149/122 106/130/113
f 102/132/111 101/150/108 112/133/114
f 98/135/109 109/151/123 110/136/116
f 96/138/112 95/131/110 106/130/113
f 102/132/111 113/134/115 114/140/118
f 100/142/104 99/137/103 110/136/116
f 96/138/112 107/139/117 108/144/120
f 103/141/102 114/140/118 115/146/121
f 100/142/104 111/143/119 112/133/114
f 97/145/105 108/144/120 109/151/123
f 115/146/121 114/140/118 125/153/124
f 111/143/119 122/164/133 123/157/127
f 108/144/120 119/165/134 120/158/128
f 105/149/122 116/156/126 117/160/129
f 112/133/114 123/157/127 124/161/130
f 109/151/123 120/158/128 121/162/131
f 106/130/113 117/160/129 118/163/132
f 113/134/115 124/161/130 125/153/124
f 111/143/119 110/136/116 121/162/131
f 107/139/117 118/163/132 119/165/134
f 118/163/132 117/160/129 128/21/21
f 124/161/130 131/1/1 132/3/3
f 122/164/133 121/162/131 130/23/23
f 118/163/132 1/24/24 129/7/7
f 126/154/125 125/153/124 132/3/3
f 122/164/133 3/4/4 4/16/16
f 120/158/128 119/165/134 129/7/7
f 117/160/129 116/156/126 127/12/12
f 124/161/130 123/157/127 4/16/16
f 120/158/128 2/18/18 130/23/23
